<svg width="51" height="44" viewBox="0 0 51 44" fill="none" xmlns="http://www.w3.org/2000/svg">
<path d="M50.5044 24.527L45.0435 10.8915C44.1046 8.55592 41.4059 6.72539 38.8997 6.72539H32.1997V4.21289C32.1997 1.9034 30.321 0.0253906 28.0122 0.0253906C25.7035 0.0253906 23.8248 1.9034 23.8248 4.21289V6.72539H5.39975C2.62892 6.72539 0.374756 8.97956 0.374756 11.7504V35.2004C0.374756 37.9712 2.62892 40.2254 5.39975 40.2254H7.38391C8.07747 42.1703 9.91919 43.5754 12.0998 43.5754C14.2803 43.5754 16.122 42.1703 16.8163 40.2254H35.8586C36.5522 42.1703 38.3939 43.5754 40.5745 43.5754C42.755 43.5754 44.5967 42.1703 45.291 40.2254H48.9495C49.8745 40.2254 50.6245 39.4761 50.6245 38.5504V25.1504C50.6245 24.9376 50.5837 24.7253 50.5041 24.5271L50.5044 24.527ZM41.935 12.1397L46.4751 23.4751H38.8998C37.9764 23.4751 37.2248 22.7243 37.2248 21.8001V10.0751H38.8998C40.0541 10.0751 41.5006 11.0599 41.935 12.1393V12.1397ZM27.1749 4.21299C27.1749 3.75161 27.5503 3.37549 28.0124 3.37549C28.4746 3.37549 28.8499 3.75161 28.8499 4.21299V6.72548H27.1749V4.21299ZM12.0999 40.2255C11.1765 40.2255 10.4249 39.4747 10.4249 38.5505C10.4249 37.6262 11.1765 36.8755 12.0999 36.8755C13.0234 36.8755 13.7749 37.6262 13.7749 38.5505C13.7749 39.4747 13.0234 40.2255 12.0999 40.2255ZM40.5749 40.2255C39.6514 40.2255 38.8999 39.4747 38.8999 38.5505C38.8999 37.6262 39.6514 36.8755 40.5749 36.8755C41.4984 36.8755 42.2499 37.6262 42.2499 38.5505C42.2499 39.4747 41.4984 40.2255 40.5749 40.2255ZM45.2915 36.8755C44.5971 34.9306 42.7554 33.5255 40.5749 33.5255C38.3945 33.5255 36.5527 34.9306 35.8584 36.8755H16.8161C16.1218 34.9306 14.28 33.5255 12.0996 33.5255C9.91909 33.5255 8.07736 34.9306 7.38305 36.8755H5.39956C4.47607 36.8755 3.72456 36.1247 3.72456 35.2005V11.7505C3.72456 10.8262 4.47607 10.0755 5.39956 10.0755H33.8746V21.8005C33.8746 24.5713 36.1287 26.8255 38.8996 26.8255H47.2746V36.8755H45.2915ZM18.7997 11.7505C13.2576 11.7505 8.74966 16.2588 8.74966 21.8005C8.74966 27.3421 13.258 31.8505 18.7997 31.8505C24.3413 31.8505 28.8497 27.3421 28.8497 21.8005C28.8497 16.2588 24.3417 11.7505 18.7997 11.7505ZM18.7997 28.5005C15.1053 28.5005 12.0997 25.4955 12.0997 21.8005C12.0997 18.1054 15.1053 15.1005 18.7997 15.1005C22.494 15.1005 25.4997 18.1054 25.4997 21.8005C25.4997 25.4955 22.494 28.5005 18.7997 28.5005ZM23.8247 21.8005C23.8247 22.7262 23.0746 23.4755 22.1497 23.4755H20.4747V25.1505C20.4747 26.0762 19.7246 26.8255 18.7997 26.8255C17.8747 26.8255 17.1247 26.0762 17.1247 25.1505V23.4755H15.4497C14.5247 23.4755 13.7747 22.7262 13.7747 21.8005C13.7747 20.8747 14.5247 20.1255 15.4497 20.1255H17.1247V18.4505C17.1247 17.5247 17.8747 16.7755 18.7997 16.7755C19.7246 16.7755 20.4747 17.5247 20.4747 18.4505V20.1255H22.1497C23.0746 20.1255 23.8247 20.8747 23.8247 21.8005Z" fill="#97805A"/>
</svg>
