<svg width="61" height="61" viewBox="0 0 61 61" fill="none" xmlns="http://www.w3.org/2000/svg">
<path d="M59.536 54.3144H57.0472V21.228H57.6816C58.5112 21.228 59.1456 20.5448 59.1456 19.764V16.0552C59.1456 15.2256 58.4624 14.5912 57.6816 14.5912H33.4768V11.1752H33.916C34.7456 11.1752 35.38 10.492 35.38 9.7112V6.0024C35.38 5.1728 34.6968 4.5384 33.916 4.5384H30.8904V1.464C30.8904 0.6344 30.2072 0 29.4264 0H24.3512C23.5216 0 22.8872 0.6832 22.8872 1.464V4.4408L14.64 4.4896V1.464C14.64 0.6344 13.9568 0 13.176 0H8.052C7.2224 0 6.588 0.6832 6.588 1.464V4.4408H3.6112C2.7816 4.4408 2.1472 5.124 2.1472 5.9048V9.6136C2.1472 10.4432 2.8304 11.0776 3.6112 11.0776H4.0016V54.2168H1.464C0.6344 54.2168 0 54.9 0 55.6808V59.4384C0 60.268 0.6832 60.9024 1.464 60.9024H59.536C60.3656 60.9024 61 60.2192 61 59.4384V55.6808C61 54.9488 60.3168 54.3144 59.536 54.3144ZM9.5648 4.4896V2.9768H11.712V4.4896H9.5648ZM25.8152 4.4896V2.9768H27.9624V4.4896H25.8152ZM32.4032 7.4176V8.1984H5.0264V7.4176H32.4032ZM54.0704 21.228V54.3144H33.4768V21.228H54.0704ZM33.4768 18.2512V17.4704H56.2176V18.2512H33.4768ZM30.5 11.1264V54.2656H6.8808V11.1264H30.5ZM58.0232 57.2424V58.0232H2.928V57.2424H58.0232Z" fill="#97805A"/>
<path d="M46.5551 50.4108H51.2887C52.1183 50.4108 52.7527 49.7276 52.7527 48.9468V41.09C52.7527 40.2604 52.0695 39.626 51.2887 39.626H46.5551C45.7255 39.626 45.0911 40.3092 45.0911 41.09V48.9468C45.0423 49.7276 45.7255 50.4108 46.5551 50.4108ZM48.0191 47.434V42.554H49.7759V47.434H48.0191Z" fill="#97805A"/>
<path d="M36.5023 50.4108H41.2359C42.0655 50.4108 42.6999 49.7276 42.6999 48.9468V41.09C42.6999 40.2604 42.0167 39.626 41.2359 39.626H36.5023C35.6727 39.626 35.0383 40.3092 35.0383 41.09V48.9468C35.0383 49.7276 35.6727 50.4108 36.5023 50.4108ZM37.9663 47.434V42.554H39.7231V47.434H37.9663Z" fill="#97805A"/>
<path d="M46.5551 37.527H51.2887C52.1183 37.527 52.7527 36.8438 52.7527 36.063V28.2062C52.7527 27.3766 52.0695 26.7422 51.2887 26.7422H46.5551C45.7255 26.7422 45.0911 27.4254 45.0911 28.2062V36.063C45.0423 36.8438 45.7255 37.527 46.5551 37.527ZM48.0191 34.5502V29.6702H49.7759V34.5502H48.0191Z" fill="#97805A"/>
<path d="M36.5023 37.527H41.2359C42.0655 37.527 42.6999 36.8438 42.6999 36.063V28.2062C42.6999 27.3766 42.0167 26.7422 41.2359 26.7422H36.5023C35.6727 26.7422 35.0383 27.4254 35.0383 28.2062V36.063C35.0383 36.8438 35.6727 37.527 36.5023 37.527ZM37.9663 34.5502V29.6702H39.7231V34.5502H37.9663Z" fill="#97805A"/>
<path d="M21.8136 37.4782H26.5472C27.3768 37.4782 28.0112 36.795 28.0112 36.0142V28.1574C28.0112 27.3278 27.328 26.6934 26.5472 26.6934H21.8136C20.984 26.6934 20.3496 27.3766 20.3496 28.1574V36.0142C20.3496 36.8438 20.984 37.4782 21.8136 37.4782ZM23.2776 34.5502V29.6702H25.0344V34.5502H23.2776Z" fill="#97805A"/>
<path d="M21.8136 24.5953H26.5472C27.3768 24.5953 28.0112 23.9121 28.0112 23.1313V15.2745C28.0112 14.4449 27.328 13.8105 26.5472 13.8105H21.8136C20.984 13.8105 20.3496 14.4937 20.3496 15.2745V23.1313C20.3496 23.9609 20.984 24.5953 21.8136 24.5953ZM23.2776 21.6673V16.7873H25.0344V21.6673H23.2776Z" fill="#97805A"/>
<path d="M10.9313 37.4782H15.6649C16.4945 37.4782 17.1289 36.795 17.1289 36.0142V28.1574C17.1289 27.3278 16.4457 26.6934 15.6649 26.6934H10.9313C10.1017 26.6934 9.46729 27.3766 9.46729 28.1574V36.0142C9.46729 36.8438 10.1505 37.4782 10.9313 37.4782ZM14.2009 29.6214V34.5014H12.4441V29.6214H14.2009Z" fill="#97805A"/>
<path d="M10.9313 24.5953H15.6649C16.4945 24.5953 17.1289 23.9121 17.1289 23.1313V15.2745C17.1289 14.4449 16.4457 13.8105 15.6649 13.8105H10.9313C10.1017 13.8105 9.46729 14.4937 9.46729 15.2745V23.1313C9.46729 23.9609 10.1505 24.5953 10.9313 24.5953ZM14.2009 16.7873V21.6673H12.4441V16.7873H14.2009Z" fill="#97805A"/>
<path d="M21.8136 50.4108H26.5472C27.3768 50.4108 28.0112 49.7276 28.0112 48.9468V41.09C28.0112 40.2604 27.328 39.626 26.5472 39.626H21.8136C20.984 39.626 20.3496 40.3092 20.3496 41.09V48.9468C20.3496 49.7276 20.984 50.4108 21.8136 50.4108ZM23.2776 47.434V42.554H25.0344V47.434H23.2776Z" fill="#97805A"/>
<path d="M10.9313 50.4108H15.6649C16.4945 50.4108 17.1289 49.7276 17.1289 48.9468V41.09C17.1289 40.2604 16.4457 39.626 15.6649 39.626H10.9313C10.1017 39.626 9.46729 40.3092 9.46729 41.09V48.9468C9.46729 49.7276 10.1505 50.4108 10.9313 50.4108ZM14.2009 42.554V47.434H12.4441V42.554H14.2009Z" fill="#97805A"/>
</svg>
