<svg width="59" height="56" viewBox="0 0 59 56" fill="none" xmlns="http://www.w3.org/2000/svg">
<g clip-path="url(#clip0_689_4076)">
<path d="M33.791 0H10.2398C7.50918 0 4.92488 1.01547 2.97447 2.81561C1.02406 4.61576 9.04002e-05 7.10827 9.04002e-05 9.69309V37.9415C-0.0486699 38.4031 0.146371 38.8647 0.487694 39.1878L17.6026 55.3891C17.7001 55.4814 17.8464 55.5737 17.9439 55.6199H17.9927C18.0902 55.666 18.1389 55.7122 18.2365 55.7122C18.2852 55.7122 18.334 55.7584 18.3827 55.7584C18.4315 55.7584 18.4315 55.7584 18.4803 55.7584C18.5778 55.7584 18.6753 55.8045 18.7728 55.8045H33.7422C36.4728 55.8045 39.0571 54.7891 40.9588 52.9889C42.9092 51.1426 43.9331 48.7424 43.9331 46.1576V9.69309C43.9331 7.10827 42.8604 4.66192 40.9588 2.86177C39.0571 1.01547 36.5216 0 33.791 0ZM33.791 52.712H20.4307V46.1576C20.4307 43.5728 19.3579 41.1264 17.4563 39.3263C15.5059 37.48 12.9703 36.5106 10.2398 36.5106H3.31579V9.69309C3.31579 7.9391 4.0472 6.32359 5.36373 5.07733C6.68026 3.83108 8.38687 3.13872 10.2398 3.13872H33.791C35.6439 3.13872 37.3505 3.83108 38.667 5.07733C39.9836 6.32359 40.715 7.9391 40.715 9.69309V46.1576C40.715 47.9116 39.9836 49.5271 38.667 50.7733C37.3505 52.0196 35.6439 52.712 33.791 52.712ZM10.2398 39.6032C12.0927 39.6032 13.7993 40.2956 15.1158 41.5418C16.4323 42.7881 17.1637 44.4036 17.1637 46.1576V50.4964L5.65629 39.6032H10.2398Z" fill="#97805A"/>
<path d="M31.6455 26.3564H12.3852C11.8001 26.3564 11.2637 26.6334 10.9711 27.1411C10.6786 27.6027 10.6786 28.2028 10.9711 28.7105C11.2637 29.1721 11.8001 29.4952 12.3852 29.4952H31.6455C32.2306 29.4952 32.767 29.2182 33.0596 28.7105C33.3521 28.2489 33.3521 27.6489 33.0596 27.1411C32.767 26.6334 32.2306 26.3564 31.6455 26.3564Z" fill="#97805A"/>
<path d="M31.6455 12.1855H12.3852C11.8001 12.1855 11.2637 12.4625 10.9711 12.9702C10.6786 13.4318 10.6786 14.0319 10.9711 14.5396C11.2637 15.0012 11.8001 15.3243 12.3852 15.3243H31.6455C32.2306 15.3243 32.767 15.0473 33.0596 14.5396C33.3521 14.078 33.3521 13.478 33.0596 12.9702C32.767 12.4625 32.2306 12.1855 31.6455 12.1855Z" fill="#97805A"/>
<path d="M58.61 12.7395L54.4166 6.78514C54.124 6.36972 53.5877 6.09277 53.0513 6.09277C52.5149 6.09277 51.9786 6.36972 51.686 6.78514L47.4926 12.7395C47.2488 13.0164 47.1025 13.3395 47.1025 13.7088V51.2349C47.1025 52.4811 47.5901 53.6351 48.5166 54.5121C49.443 55.3891 50.662 55.8507 51.9786 55.8507H54.124C55.4406 55.8507 56.6596 55.3891 57.586 54.5121C58.5125 53.6351 59.0001 52.4811 59.0001 51.2349V13.7088C59.0001 13.3857 58.8538 13.0164 58.61 12.7395ZM55.2455 52.2965C54.953 52.5735 54.5629 52.7119 54.124 52.7119H51.9786C51.5885 52.7119 51.1496 52.5735 50.8571 52.2965C50.5645 52.0196 50.4182 51.6503 50.4182 51.2349V47.7269H55.6844V51.2349C55.6844 51.6042 55.5381 51.9734 55.2455 52.2965ZM52.6612 11.0316C52.8563 10.7547 53.2951 10.7547 53.4901 11.0316L55.7331 14.1704V44.5882H50.467V14.1704L52.6612 11.0316Z" fill="#97805A"/>
</g>
<defs>
<clipPath id="clip0_689_4076">
<rect width="59" height="55.8507" fill="white"/>
</clipPath>
</defs>
</svg>
