<svg width="43" height="42" viewBox="0 0 43 42" fill="none" xmlns="http://www.w3.org/2000/svg">
<mask id="path-1-inside-1_738_3881" fill="white">
<path d="M41.3056 35.1752L39.8142 33.7324L40.4582 33.0667C41.1731 32.3205 41.5636 31.3216 41.5441 30.2884C41.5244 29.255 41.0963 28.2713 40.3536 27.5528C39.8243 27.0413 39.1594 26.6932 38.4376 26.5496C39.2713 25.5099 39.5152 24.1159 39.0834 22.8548C38.6516 21.5936 37.6044 20.6416 36.3079 20.3315C35.0116 20.0216 33.6466 20.3966 32.6909 21.3258L29.9346 24.1751L17.7254 12.3642L20.5206 9.47476C21.4172 8.48902 21.7471 7.11259 21.3942 5.82709C21.0416 4.54183 20.055 3.52649 18.7803 3.13674C17.5061 2.74699 16.1207 3.03665 15.1092 3.90499C14.9417 3.18838 14.5715 2.53511 14.0428 2.02299C13.299 1.30979 12.3037 0.919491 11.2738 0.936815C10.2436 0.953898 9.26182 1.37691 8.54181 2.1142L7.85927 2.81975L6.36788 1.37701C5.8876 0.9124 5.24433 0.653729 4.57587 0.657768C3.90714 0.661549 3.2667 0.926892 2.79172 1.39707L1.11728 3.12798C0.663069 3.61832 0.419141 4.26716 0.437531 4.93565C0.455624 5.60386 0.735467 6.23818 1.21578 6.70283L2.70717 8.14557L2.06316 8.8113C1.34824 9.55746 0.957758 10.5564 0.977208 11.5896C0.996976 12.623 1.42502 13.6067 2.16775 14.3252C2.69705 14.8367 3.36198 15.1848 4.08377 15.3284C3.25003 16.3681 3.00611 17.7621 3.43794 19.0232C3.86973 20.2843 4.91691 21.2364 6.21346 21.5465C7.50971 21.8563 8.87474 21.4813 9.83047 20.5522L12.5868 17.7029L24.8096 29.527L22.0533 32.3763C21.1564 33.3624 20.8265 34.7388 21.1794 36.0243C21.532 37.3095 22.5183 38.3246 23.793 38.7143C25.0678 39.1041 26.4532 38.8144 27.4644 37.9464C27.6319 38.663 28.0021 39.3163 28.5309 39.8284C29.2689 40.5291 30.2506 40.9144 31.2684 40.9024C32.2858 40.8902 33.2585 40.4819 33.98 39.7641L34.6625 39.0585L36.1405 40.4883C36.6276 40.9595 37.2823 41.2183 37.9603 41.2068C38.6382 41.1958 39.284 40.9155 39.7552 40.4284L41.4296 38.6975C41.8648 38.2066 42.0949 37.5673 42.0718 36.9114C42.0489 36.2559 41.7745 35.6343 41.306 35.1753L41.3056 35.1752ZM2.50388 5.3716C2.22451 5.10134 2.21713 4.65579 2.48738 4.37643L4.16183 2.64552C4.44114 2.4359 4.83228 2.46275 5.07995 2.70867L6.57134 4.15141L3.99527 6.81434L2.50388 5.3716ZM3.44245 12.981C3.0649 12.6095 2.84514 12.1069 2.82904 11.5775C2.81296 11.0482 3.00181 10.533 3.35617 10.1394L9.87341 3.40236C10.3971 2.95503 11.1092 2.79934 11.7714 2.98782C12.4334 3.17599 12.9574 3.68285 13.1674 4.33826C13.3774 4.99364 13.2457 5.71083 12.816 6.24899L6.29849 12.9863L6.29877 12.986C5.9207 13.3768 5.40238 13.6004 4.85858 13.607C4.31505 13.6134 3.79131 13.4025 3.40391 13.0208L3.44245 12.981ZM5.60422 19.2992C5.21459 18.9223 4.98965 18.4067 4.97772 17.8647C4.96639 17.3227 5.16971 16.7979 5.54306 16.4048L16.247 5.33994C16.7704 4.8929 17.4825 4.73722 18.1447 4.9257C18.807 5.11358 19.3309 5.62044 19.5407 6.27615C19.7507 6.93152 19.619 7.64871 19.1896 8.18657L8.55044 19.1845C8.18685 19.6198 7.65815 19.8838 7.09189 19.9131C6.52534 19.9421 5.97241 19.734 5.56579 19.3389L5.60422 19.2992ZM13.8615 16.3587L16.4376 13.6958L28.6604 25.5199L26.0843 28.1829L13.8615 16.3587ZM26.2747 36.538C25.7514 36.985 25.0392 37.1407 24.377 36.9522C23.7147 36.7643 23.1908 36.2575 22.981 35.6018C22.771 34.9464 22.9027 34.2292 23.3321 33.6913L34.0743 22.5869C34.5977 22.1399 35.3101 21.9845 35.972 22.1727C36.6343 22.3606 37.1583 22.8674 37.368 23.5231C37.5783 24.1788 37.4463 24.8957 37.0169 25.4336L26.2747 36.538ZM32.648 38.4758C32.1243 38.9232 31.4122 39.0789 30.75 38.8904C30.088 38.7022 29.564 38.1954 29.354 37.5399C29.144 36.8846 29.2757 36.1674 29.7054 35.6292L36.2226 28.8922C36.7463 28.4449 37.4587 28.2895 38.1206 28.4777C38.7826 28.6659 39.3066 29.1727 39.5166 29.8281C39.7269 30.4838 39.5949 31.2007 39.1652 31.7389L32.648 38.4758ZM38.3846 39.18C38.1144 39.4593 37.6688 39.4667 37.3894 39.1965L35.9114 37.7667L38.526 35.064L40.004 36.4937C40.2834 36.764 40.2908 37.2096 40.0205 37.4889L38.3846 39.18Z"/>
</mask>
<path d="M41.3056 35.1752L39.8142 33.7324L40.4582 33.0667C41.1731 32.3205 41.5636 31.3216 41.5441 30.2884C41.5244 29.255 41.0963 28.2713 40.3536 27.5528C39.8243 27.0413 39.1594 26.6932 38.4376 26.5496C39.2713 25.5099 39.5152 24.1159 39.0834 22.8548C38.6516 21.5936 37.6044 20.6416 36.3079 20.3315C35.0116 20.0216 33.6466 20.3966 32.6909 21.3258L29.9346 24.1751L17.7254 12.3642L20.5206 9.47476C21.4172 8.48902 21.7471 7.11259 21.3942 5.82709C21.0416 4.54183 20.055 3.52649 18.7803 3.13674C17.5061 2.74699 16.1207 3.03665 15.1092 3.90499C14.9417 3.18838 14.5715 2.53511 14.0428 2.02299C13.299 1.30979 12.3037 0.919491 11.2738 0.936815C10.2436 0.953898 9.26182 1.37691 8.54181 2.1142L7.85927 2.81975L6.36788 1.37701C5.8876 0.9124 5.24433 0.653729 4.57587 0.657768C3.90714 0.661549 3.2667 0.926892 2.79172 1.39707L1.11728 3.12798C0.663069 3.61832 0.419141 4.26716 0.437531 4.93565C0.455624 5.60386 0.735467 6.23818 1.21578 6.70283L2.70717 8.14557L2.06316 8.8113C1.34824 9.55746 0.957758 10.5564 0.977208 11.5896C0.996976 12.623 1.42502 13.6067 2.16775 14.3252C2.69705 14.8367 3.36198 15.1848 4.08377 15.3284C3.25003 16.3681 3.00611 17.7621 3.43794 19.0232C3.86973 20.2843 4.91691 21.2364 6.21346 21.5465C7.50971 21.8563 8.87474 21.4813 9.83047 20.5522L12.5868 17.7029L24.8096 29.527L22.0533 32.3763C21.1564 33.3624 20.8265 34.7388 21.1794 36.0243C21.532 37.3095 22.5183 38.3246 23.793 38.7143C25.0678 39.1041 26.4532 38.8144 27.4644 37.9464C27.6319 38.663 28.0021 39.3163 28.5309 39.8284C29.2689 40.5291 30.2506 40.9144 31.2684 40.9024C32.2858 40.8902 33.2585 40.4819 33.98 39.7641L34.6625 39.0585L36.1405 40.4883C36.6276 40.9595 37.2823 41.2183 37.9603 41.2068C38.6382 41.1958 39.284 40.9155 39.7552 40.4284L41.4296 38.6975C41.8648 38.2066 42.0949 37.5673 42.0718 36.9114C42.0489 36.2559 41.7745 35.6343 41.306 35.1753L41.3056 35.1752ZM2.50388 5.3716C2.22451 5.10134 2.21713 4.65579 2.48738 4.37643L4.16183 2.64552C4.44114 2.4359 4.83228 2.46275 5.07995 2.70867L6.57134 4.15141L3.99527 6.81434L2.50388 5.3716ZM3.44245 12.981C3.0649 12.6095 2.84514 12.1069 2.82904 11.5775C2.81296 11.0482 3.00181 10.533 3.35617 10.1394L9.87341 3.40236C10.3971 2.95503 11.1092 2.79934 11.7714 2.98782C12.4334 3.17599 12.9574 3.68285 13.1674 4.33826C13.3774 4.99364 13.2457 5.71083 12.816 6.24899L6.29849 12.9863L6.29877 12.986C5.9207 13.3768 5.40238 13.6004 4.85858 13.607C4.31505 13.6134 3.79131 13.4025 3.40391 13.0208L3.44245 12.981ZM5.60422 19.2992C5.21459 18.9223 4.98965 18.4067 4.97772 17.8647C4.96639 17.3227 5.16971 16.7979 5.54306 16.4048L16.247 5.33994C16.7704 4.8929 17.4825 4.73722 18.1447 4.9257C18.807 5.11358 19.3309 5.62044 19.5407 6.27615C19.7507 6.93152 19.619 7.64871 19.1896 8.18657L8.55044 19.1845C8.18685 19.6198 7.65815 19.8838 7.09189 19.9131C6.52534 19.9421 5.97241 19.734 5.56579 19.3389L5.60422 19.2992ZM13.8615 16.3587L16.4376 13.6958L28.6604 25.5199L26.0843 28.1829L13.8615 16.3587ZM26.2747 36.538C25.7514 36.985 25.0392 37.1407 24.377 36.9522C23.7147 36.7643 23.1908 36.2575 22.981 35.6018C22.771 34.9464 22.9027 34.2292 23.3321 33.6913L34.0743 22.5869C34.5977 22.1399 35.3101 21.9845 35.972 22.1727C36.6343 22.3606 37.1583 22.8674 37.368 23.5231C37.5783 24.1788 37.4463 24.8957 37.0169 25.4336L26.2747 36.538ZM32.648 38.4758C32.1243 38.9232 31.4122 39.0789 30.75 38.8904C30.088 38.7022 29.564 38.1954 29.354 37.5399C29.144 36.8846 29.2757 36.1674 29.7054 35.6292L36.2226 28.8922C36.7463 28.4449 37.4587 28.2895 38.1206 28.4777C38.7826 28.6659 39.3066 29.1727 39.5166 29.8281C39.7269 30.4838 39.5949 31.2007 39.1652 31.7389L32.648 38.4758ZM38.3846 39.18C38.1144 39.4593 37.6688 39.4667 37.3894 39.1965L35.9114 37.7667L38.526 35.064L40.004 36.4937C40.2834 36.764 40.2908 37.2096 40.0205 37.4889L38.3846 39.18Z" fill="#97805A" stroke="#97805A" stroke-width="4" mask="url(#path-1-inside-1_738_3881)"/>
</svg>
