<svg width="49" height="44" viewBox="0 0 49 44" fill="none" xmlns="http://www.w3.org/2000/svg">
<path fill-rule="evenodd" clip-rule="evenodd" d="M48.0303 35.6818H44.4391V30.858C44.4391 30.5364 44.171 30.2684 43.8495 30.2684H42.6703V27.8565C42.6703 27.5349 42.4022 27.2668 42.0807 27.2668H41.0087L42.3487 20.8349C42.456 20.3526 42.1345 19.8703 41.6518 19.763C41.1695 19.6557 40.6872 19.9773 40.5799 20.4599L39.1864 27.2672H38.7576V12.4727C38.7576 11.9904 38.3287 11.5615 37.8464 11.5615C37.3641 11.5615 36.9353 11.9904 36.9353 12.4727V27.2663H36.5599L35.1126 16.8679C35.0591 16.3856 34.5764 16.0102 34.0941 16.1175C33.6118 16.171 33.2364 16.6536 33.3437 17.136L34.6837 27.2128H33.5579C33.2364 27.2128 32.9683 27.4809 32.9683 27.8024V30.2143H31.7891C31.4676 30.2143 31.1995 30.4824 31.1995 30.8039V35.6277H27.6083C27.7691 35.3062 27.8764 34.9308 27.8764 34.5558C27.8764 33.8589 27.6083 33.1623 27.126 32.7335C27.6083 32.2512 27.8764 31.5543 27.8764 30.8573C27.8764 29.8388 27.3402 28.9811 26.4829 28.4988C27.3405 27.6412 27.8764 26.462 27.8764 25.122C27.8764 23.782 27.3402 22.6028 26.4829 21.7451C27.2867 21.2627 27.8764 20.4051 27.8764 19.3866C27.8764 18.5827 27.5548 17.8858 27.0187 17.4035C27.5548 16.8673 27.8764 16.1708 27.8764 15.3666C27.8764 13.7585 26.5899 12.5258 25.0356 12.5258H6.81156C4.13156 12.5258 1.98775 14.6696 1.98775 17.3496C1.98775 18.6896 2.52391 19.8688 3.38126 20.7265C2.57741 21.2088 1.98775 22.0665 1.98775 23.085C1.98775 23.8888 2.3093 24.5858 2.84544 25.0681C2.30929 25.6042 1.98775 26.3008 1.98775 27.105C1.98775 28.1235 2.52391 28.9812 3.27425 29.5169C2.4704 30.3207 1.98775 31.4465 1.98775 32.6792C1.98775 33.8584 2.4166 34.8769 3.16695 35.6807L0.969258 35.6814C0.647715 35.6814 0.379639 35.9495 0.379639 36.271V39.8622C0.379639 40.1838 0.647715 40.4519 0.969258 40.4519H2.79156V42.8638C2.79156 43.1853 3.05964 43.4534 3.38118 43.4534H6.97238C7.29392 43.4534 7.562 43.1853 7.562 42.8638V40.4519H41.33V42.8638C41.33 43.1853 41.5981 43.4534 41.9196 43.4534H45.5108C45.8324 43.4534 46.1004 43.1853 46.1004 42.8638V40.4519H47.9227C48.2443 40.4519 48.5124 40.1838 48.5124 39.8622V36.271C48.6197 35.9495 48.3516 35.6814 48.03 35.6814L48.0303 35.6818ZM4.77509 28.1241C4.18547 28.1241 3.70318 27.6418 3.70318 27.0522C3.70318 26.4626 4.1855 25.9803 4.77509 25.9803H23.5887C24.1783 25.9803 24.6072 25.498 24.6072 24.9618C24.6072 24.3722 24.1249 23.9433 23.5887 23.9433H4.61429C4.07814 23.9433 3.70314 23.5144 3.70314 23.0321C3.70314 22.496 4.13198 22.121 4.61429 22.121H22.9991C24.6606 22.121 26.0006 23.461 26.0006 25.1225C26.0006 26.784 24.6606 28.124 22.9991 28.124L4.77509 28.1241ZM22.9991 29.9468H25.0895C25.5718 29.9468 26.0006 30.3756 26.0006 30.8579C26.0006 31.3402 25.5718 31.7691 25.0895 31.7691H6.16869C5.63253 31.7691 5.15019 32.1979 5.15019 32.7876C5.15019 33.3237 5.57904 33.8061 6.16869 33.8061H25.2503C25.6791 33.8061 26.0541 34.1815 26.0541 34.6099C26.0541 35.0388 25.6788 35.4138 25.2503 35.4138H6.43669C4.93589 35.4138 3.70318 34.1811 3.70318 32.6803C3.70318 31.1795 4.93589 29.9468 6.43669 29.9468L22.9991 29.9468ZM6.70469 14.242H24.9287C25.5183 14.242 26.0006 14.7243 26.0006 15.3139C26.0006 15.9035 25.5183 16.3858 24.9287 16.3858L6.16869 16.3862C5.57907 16.3862 5.15019 16.8685 5.15019 17.4047C5.15019 17.9943 5.63251 18.4231 6.16869 18.4231H25.0895C25.6256 18.4231 26.0006 18.852 26.0006 19.3343C26.0006 19.8705 25.5718 20.2455 25.0895 20.2455H6.70469C5.04318 20.2455 3.70318 18.9055 3.70318 17.2439C3.70318 15.6359 5.04318 14.2421 6.70469 14.2421V14.242ZM34.7375 29.0356H40.7406V30.2148H34.7375V29.0356ZM32.9152 32.0371H42.5096V35.6283H32.8616L32.8612 32.0371H32.9152ZM5.79358 41.6851H4.61438V40.5059H5.79358V41.6851ZM44.3856 41.6851H43.2064V40.5059H44.3856V41.6851ZM46.7975 38.6832H2.20229V37.504H46.7975V38.6832Z" fill="#97805A"/>
<path fill-rule="evenodd" clip-rule="evenodd" d="M7.02634 8.56022C9.33095 8.56022 11.2605 6.68403 11.2605 4.32601C11.2605 2.0214 9.38436 0.0917969 7.02634 0.0917969C4.66784 0.0914231 2.79175 1.96761 2.79175 4.32601C2.79175 6.63062 4.66794 8.56022 7.02634 8.56022ZM7.02634 1.91372C8.36634 1.91372 9.43825 2.98562 9.43825 4.32562C9.43825 5.66563 8.36634 6.73753 7.02634 6.73753C5.68634 6.73753 4.61444 5.66563 4.61444 4.32562C4.61406 2.98601 5.68634 1.91372 7.02634 1.91372Z" fill="#97805A"/>
<path fill-rule="evenodd" clip-rule="evenodd" d="M26.9119 4.91561C28.2519 4.91561 29.3238 3.8437 29.3238 2.5037C29.3238 1.1637 28.2519 0.091797 26.9119 0.091797C25.5719 0.0914231 24.5 1.16332 24.5 2.50332C24.5 3.84332 25.5719 4.91561 26.9119 4.91561ZM26.9119 1.91372C27.2334 1.91372 27.5015 2.1818 27.5015 2.50334C27.5015 2.82488 27.2334 3.09296 26.9119 3.09296C26.5904 3.09296 26.3223 2.82488 26.3223 2.50334C26.3223 2.1818 26.5904 1.91372 26.9119 1.91372Z" fill="#97805A"/>
<path fill-rule="evenodd" clip-rule="evenodd" d="M43.2063 9.73933C44.8678 9.73933 46.2078 8.39933 46.2078 6.73783C46.2078 5.07633 44.8678 3.73633 43.2063 3.73633C41.5448 3.73633 40.2048 5.07633 40.2048 6.73783C40.2045 8.39933 41.5445 9.73933 43.2063 9.73933ZM43.2063 5.50513C43.8494 5.50513 44.3855 6.04128 44.3855 6.68432C44.3855 7.32737 43.8494 7.86352 43.2063 7.86352C42.5633 7.86352 42.0271 7.32737 42.0271 6.68432C42.0271 6.04087 42.5095 5.50513 43.2063 5.50513Z" fill="#97805A"/>
</svg>
