<svg width="76" height="61" viewBox="0 0 76 61" fill="none" xmlns="http://www.w3.org/2000/svg">
<g clip-path="url(#clip0_689_4095)">
<path d="M47.6526 33.796C48.1414 33.6484 48.5324 33.3532 48.8256 32.9597C49.07 32.5169 49.1677 32.025 49.1189 31.5331L47.4083 21.9895C47.3594 21.8419 47.4083 21.6452 47.5549 21.5468L54.3973 14.7581C54.7394 14.4137 54.9349 13.9218 54.9838 13.4298C55.0327 12.9379 54.8372 12.446 54.5439 12.0524C54.2507 11.6589 53.8108 11.4129 53.3221 11.3637L43.7915 9.98629C43.6449 9.98629 43.4983 9.83871 43.4005 9.69113L39.0996 1.08226C38.9529 0.737903 38.7086 0.491936 38.3665 0.295161C38.1221 0.147581 37.8288 0.0491936 37.5356 0C37.4867 0 37.4378 0 37.389 0C36.998 0 36.6558 0.0983871 36.3626 0.295161C36.0693 0.491936 35.7761 0.787097 35.6295 1.13145L31.3774 9.83871C31.3285 9.98629 31.1819 10.0847 30.9864 10.1339L21.4558 11.5605C20.9671 11.6589 20.5272 11.9048 20.234 12.2492C19.9407 12.6427 19.7452 13.1347 19.7941 13.6266C19.843 14.1186 20.0385 14.5613 20.3806 14.9548L27.3208 21.6452C27.4185 21.7435 27.5163 21.9403 27.4674 22.0879L25.9034 31.6315C25.8057 32.1234 25.9034 32.6153 26.1967 33.0581C26.4899 33.4516 26.8809 33.796 27.3697 33.8944C27.5163 33.9436 27.7118 33.9436 27.8584 33.9436C28.2005 33.9436 28.4938 33.8452 28.787 33.6976L37.2912 29.1718C37.4378 29.0734 37.6333 29.0734 37.78 29.1718L46.333 33.5992C46.6751 33.8944 47.2128 33.9436 47.6526 33.796ZM31.2308 22.7274C31.4751 21.3008 30.9864 19.8742 29.96 18.8903L25.7568 14.7581L31.5729 13.8726C32.9902 13.6758 34.2121 12.7411 34.8475 11.4621L37.389 6.19839L40.0282 11.4621C40.6636 12.7411 41.8854 13.6266 43.3028 13.8234L49.1189 14.6597L44.9645 18.7919C43.9382 19.7758 43.4983 21.2516 43.7427 22.6782L44.769 28.4831L39.5883 25.7774C38.3176 25.0887 36.8025 25.0887 35.5317 25.7774L30.2533 28.5323L31.2308 22.7274Z" fill="#97805A"/>
<path d="M33.528 38.4197L23.9974 37.0423C23.8508 37.0423 23.7042 36.8947 23.6064 36.7472L19.3543 28.0891C19.2077 27.7447 18.9145 27.4988 18.6212 27.302C18.3769 27.1544 18.0836 27.056 17.7415 27.0068C17.6926 27.0068 17.6437 27.0068 17.5949 27.0068C17.2039 27.0068 16.8617 27.1052 16.5685 27.302C16.2752 27.4988 15.982 27.7939 15.8354 28.1383L11.6322 36.8455C11.5833 36.9931 11.4367 37.0915 11.2412 37.1407L1.66174 38.5673C1.17299 38.6657 0.733119 38.9117 0.439871 39.3052C0.146624 39.6988 0 40.1907 0 40.6826C0.0488746 41.1746 0.244373 41.6173 0.586495 42.0109L7.52669 48.7012C7.62444 48.7996 7.72219 48.9964 7.67331 49.1439L6.10933 58.6875C6.01158 59.1794 6.10933 59.6713 6.40257 60.1141C6.69582 60.5568 7.08682 60.852 7.57556 60.9504C7.72219 60.9996 7.91769 60.9996 8.06431 60.9996C8.40643 60.9996 8.69968 60.9012 8.99293 60.7536L17.4971 56.2278C17.6437 56.1294 17.8392 56.1294 17.9859 56.2278L26.5389 60.6552C26.9788 60.9012 27.4675 60.9504 27.9563 60.8028C28.445 60.6552 28.836 60.3601 29.1293 59.9665C29.3736 59.5238 29.4714 59.0318 29.4225 58.5399L27.7119 48.9963C27.663 48.8488 27.7119 48.652 27.8585 48.5536L34.701 41.7649C35.0431 41.4205 35.2386 40.9286 35.2875 40.4367C35.3363 39.9447 35.1408 39.4528 34.8476 39.0593C34.5543 38.6657 34.0167 38.4689 33.528 38.4197ZM11.4367 49.7834C11.681 48.3568 11.1923 46.9302 10.1659 45.9464L5.9627 41.8141L11.7788 40.9286C13.1961 40.7318 14.418 39.7972 15.0534 38.5181L17.5949 33.2544L20.2341 38.5181C20.8695 39.7972 22.0913 40.6826 23.5087 40.8794L29.3248 41.7157L25.1704 45.848C24.1441 46.8318 23.7042 48.3076 23.9486 49.7343L24.9749 55.5391L19.7942 52.8334C18.5235 52.1447 17.0084 52.1447 15.7376 52.8334L10.4592 55.5883L11.4367 49.7834Z" fill="#97805A"/>
<path d="M75.4134 41.6666C75.7555 41.3223 75.951 40.8303 75.9999 40.3384C76.0488 39.8465 75.8533 39.3545 75.56 38.961C75.2668 38.5674 74.8269 38.3215 74.3382 38.2723L64.8076 36.8949C64.661 36.8949 64.5144 36.7473 64.4166 36.5997L60.1645 27.9416C60.0179 27.5973 59.7247 27.3513 59.4314 27.1545C59.187 27.007 58.8938 26.9086 58.5517 26.8594C58.5028 26.8594 58.4539 26.8594 58.405 26.8594C58.014 26.8594 57.6719 26.9578 57.3298 27.1545C57.0365 27.3513 56.7433 27.6465 56.5967 27.9908L52.3935 36.6981C52.3446 36.8457 52.198 36.9441 52.0025 36.9932L42.5208 38.4691C42.032 38.5182 41.5922 38.8134 41.2989 39.207C41.0057 39.6005 40.8102 40.0924 40.859 40.5844C40.9079 41.0763 41.1034 41.519 41.4455 41.9126L48.3857 48.6521C48.4835 48.7505 48.5812 48.9473 48.5324 49.0949L46.9195 58.5892C46.8218 59.0811 46.9195 59.5731 47.2127 60.0158C47.506 60.4586 47.897 60.7537 48.3857 60.8521C48.5324 60.9013 48.7279 60.9013 48.8745 60.9013C49.2166 60.9013 49.5099 60.8029 49.8031 60.6553L58.3073 56.1295C58.4539 56.0311 58.6494 56.0311 58.796 56.1295L67.3491 60.557C67.789 60.8029 68.2777 60.8521 68.7665 60.7045C69.2552 60.557 69.6462 60.2618 69.9395 59.8682C70.1838 59.4255 70.2816 58.9336 70.2327 58.4416L68.4243 48.8981C68.3755 48.7505 68.4243 48.5537 68.571 48.4553L75.4134 41.6666ZM52.2957 49.636C52.5401 48.2094 52.0513 46.7828 51.025 45.7989L46.8218 41.6666L52.6378 40.7811C54.0552 40.5844 55.2771 39.6497 55.9124 38.3707L58.4539 33.107L61.0931 38.3707C61.7285 39.6497 62.9504 40.5352 64.3677 40.732L70.1838 41.5682L66.0295 45.7005C65.0031 46.7336 64.5632 48.1602 64.8076 49.5868L65.834 55.3916L60.6533 52.686C59.3825 51.9973 57.8674 51.9973 56.5967 52.686L51.416 55.4408L52.2957 49.636Z" fill="#97805A"/>
</g>
<defs>
<clipPath id="clip0_689_4095">
<rect width="76" height="61" fill="white"/>
</clipPath>
</defs>
</svg>
