<svg width="35" height="46" viewBox="0 0 35 46" fill="none" xmlns="http://www.w3.org/2000/svg">
<path d="M34.4529 36.3307C34.3243 35.2696 33.7643 34.3705 32.8733 33.7898L26.4649 28.8138C25.3163 27.7572 23.6503 27.5711 22.2924 28.355L20.9314 29.141C19.7806 29.8053 18.3034 29.4094 17.6393 28.2586L12.4213 19.221C11.7569 18.0703 12.1529 16.5934 13.3037 15.9289L14.7218 15.1101C16.0722 14.3306 16.7457 12.8014 16.4148 11.2853L15.3623 3.46181C15.3055 2.39919 14.806 1.46377 13.9513 0.821048C13.0745 0.162639 12.0072 -0.0508515 10.9442 0.219848L5.95505 1.49141C2.68392 2.02682 0.77375 4.15237 0.573707 7.48332L0.572585 7.4979C0.186359 15.2934 1.90588 22.3863 5.82979 29.1829C10.1709 36.7014 15.407 41.5837 22.8076 45.0122L22.8517 45.032C23.4765 45.2956 24.2209 45.496 25.0434 45.496C26.4174 45.496 28.009 44.937 29.6167 43.1843L33.4692 39.2365C34.2353 38.4513 34.5841 37.4198 34.4525 36.3313L34.4529 36.3307ZM31.4399 37.2538L27.5713 41.2181L27.5391 41.2525C25.9875 42.9519 24.8221 42.7783 23.9775 42.427C17.1526 39.2602 12.3128 34.7369 8.28706 27.7635C4.64542 21.4561 3.0489 14.8765 3.40601 7.64437C3.53089 5.60145 4.4447 4.59607 6.4614 4.28164L6.52796 4.27117L11.6449 2.96668C11.8767 2.90761 12.0562 2.94388 12.2473 3.08707C12.4383 3.23027 12.5228 3.39328 12.5307 3.6322L12.5329 3.70398L13.622 11.7975L13.6396 11.8685C13.7166 12.1867 13.588 12.4866 13.3042 12.6507L11.8861 13.4695C9.38072 14.916 8.51929 18.1311 9.96592 20.6365L15.1839 29.674C16.6304 32.1794 19.8458 33.0409 22.3509 31.5942L23.7118 30.8084C23.9975 30.6438 24.3224 30.6831 24.5602 30.9115L24.6144 30.9639L31.2445 36.1123L31.3073 36.1511C31.5104 36.2775 31.6087 36.4323 31.6378 36.669C31.6655 36.9083 31.6068 37.0825 31.4401 37.253L31.4399 37.2538Z" fill="#97805A"/>
</svg>
