<svg width="67" height="71" viewBox="0 0 67 71" fill="none" xmlns="http://www.w3.org/2000/svg">
<g clip-path="url(#clip0_689_4071)">
<path d="M66.9017 53.4712C64.4948 45.4388 53.983 39.8348 40.9171 38.2003C40.3767 38.1536 39.8364 38.3404 39.4435 38.714L33.4508 45.252L27.5072 38.714C27.1634 38.3404 26.5739 38.1069 26.0336 38.2003C13.0168 39.8348 2.50503 45.4388 0.0490222 53.4712C-0.0492183 53.7514 -0.0492183 54.0783 0.0490222 54.3585C1.52263 59.0752 5.89433 62.9513 11.7888 65.7066C17.6832 68.4619 25.2477 70.0497 33.4999 70.0497C41.7521 70.0497 49.3166 68.4152 55.2111 65.7066C61.1055 62.9513 65.4772 59.0752 66.9508 54.3585C66.9999 54.0316 66.9999 53.7514 66.9017 53.4712ZM53.7374 62.8579C48.3833 65.333 41.2609 66.8741 33.4999 66.8741C25.7389 66.8741 18.6165 65.333 13.2624 62.8579C8.10474 60.4762 4.76456 57.2539 3.53656 53.8915C5.59961 48.2875 14.1465 43.1505 25.5915 41.516L32.2228 48.7078C32.5175 49.0347 33.0087 49.2682 33.4999 49.2682C33.9911 49.2682 34.4332 49.0814 34.777 48.7078L41.4083 41.516C52.9024 43.1505 61.4493 48.2875 63.4632 53.8915C62.2352 57.2539 58.8951 60.4762 53.7374 62.8579Z" fill="#97805A"/>
<path d="M32.9106 36.6128C41.8996 36.6128 48.8255 28.2535 48.8255 18.3064C48.7764 8.3593 41.8996 0 32.9106 0C23.8724 0 16.9956 8.3593 16.9956 18.3064C16.9956 28.2535 23.8724 36.6128 32.9106 36.6128ZM32.9106 3.1756C39.6892 3.1756 45.4853 9.7136 45.4853 18.3064C45.4853 26.8525 39.6892 33.4372 32.9106 33.4372C26.132 33.4372 20.3358 26.8992 20.3358 18.3064C20.3358 9.7603 26.132 3.1756 32.9106 3.1756Z" fill="#97805A"/>
<path d="M52.755 50.156H50.2498V47.7743C50.2498 46.887 49.513 46.1865 48.5797 46.1865H43.5204C43.4712 46.1865 43.4221 46.1865 43.373 46.1865C42.4888 46.2799 41.8503 46.9337 41.8503 47.7743V50.156H39.3451C38.4119 50.156 37.675 50.8565 37.675 51.7438V56.5072C37.675 57.3945 38.4119 58.095 39.3451 58.095H41.8503V60.4767C41.8503 61.364 42.5871 62.0645 43.5204 62.0645H48.5306C49.4639 62.0645 50.2007 61.364 50.2007 60.4767V58.095H52.7058C53.6391 58.095 54.3759 57.3945 54.3759 56.5072V51.7438C54.425 50.8565 53.6882 50.156 52.755 50.156ZM51.0849 54.9194H48.5797C47.6465 54.9194 46.9097 55.6199 46.9097 56.5072V58.8889H45.1904V56.5072C45.1904 55.6199 44.4536 54.9194 43.5204 54.9194H41.0152V53.3316H43.5204C44.4536 53.3316 45.1904 52.6311 45.1904 51.7438V49.3621H46.8605V51.7438C46.8605 52.6311 47.5973 53.3316 48.5306 53.3316H51.0358V54.9194H51.0849Z" fill="#97805A"/>
</g>
<defs>
<clipPath id="clip0_689_4071">
<rect width="67" height="70.05" fill="white"/>
</clipPath>
</defs>
</svg>
