<svg width="45" height="45" viewBox="0 0 45 45" fill="none" xmlns="http://www.w3.org/2000/svg">
<path d="M22.4999 0.824219C10.3882 0.824219 0.523926 10.6885 0.523926 22.8002C0.523926 34.9119 10.3882 44.7762 22.4999 44.7762C34.6116 44.7762 44.4759 34.9119 44.4759 22.8002C44.4759 10.6885 34.6116 0.824219 22.4999 0.824219ZM22.4999 5.11231C32.2934 5.11231 40.1879 13.0062 40.1879 22.8003C40.1879 32.5945 32.2941 40.4883 22.4999 40.4883C12.7064 40.4883 4.81193 32.5945 4.81193 22.8003C4.81193 13.0062 12.7058 5.11231 22.4999 5.11231ZM17.1399 11.0085V36.7365H21.428V26.0165H24.6442C28.7644 26.0165 32.148 22.6325 32.148 18.5127C32.148 14.3925 28.764 11.0089 24.6442 11.0089L17.1399 11.0085ZM21.428 15.2966H24.6442C26.4628 15.2966 27.8604 16.6938 27.8604 18.5128C27.8604 20.3314 26.4632 21.729 24.6442 21.729H21.428V15.2966Z" fill="#97805A"/>
</svg>
