<svg width="55" height="46" viewBox="0 0 55 46" fill="none" xmlns="http://www.w3.org/2000/svg">
<path d="M9.44153 0.301777C8.99736 0.309629 8.57449 0.493579 8.26568 0.812872C7.95722 1.13254 7.78823 1.56176 7.79609 2.00595V3.18372H2.39493C1.95038 3.18222 1.52377 3.35682 1.20855 3.66976C0.892987 3.9827 0.715025 4.40818 0.713149 4.85231V35.2674C0.71128 35.7139 0.888125 36.1423 1.20369 36.4582C1.51962 36.7738 1.94808 36.9506 2.39485 36.9488H30.621C32.2216 41.7864 36.7845 45.2976 42.146 45.2976C48.8329 45.2976 54.2864 39.8408 54.2864 33.1534C54.2864 27.0901 49.7964 22.0553 43.9751 21.1671V4.8526C43.9732 4.40843 43.7952 3.98295 43.4797 3.67005C43.1645 3.35711 42.7379 3.1825 42.2937 3.184H36.8921V2.00624C36.9004 1.55384 36.7246 1.11714 36.4053 0.795931C36.086 0.474762 35.6505 0.296417 35.1977 0.302026C34.7509 0.306139 34.3247 0.488592 34.0132 0.808642C33.7018 1.12869 33.5313 1.55978 33.5392 2.00622V3.18398H11.1487V2.00622C11.1566 1.5512 10.979 1.11264 10.6571 0.791126C10.3348 0.469583 9.89583 0.293115 9.44081 0.302084L9.44153 0.301777ZM4.06325 6.53364H7.79611V7.70834C7.79611 8.3073 8.1154 8.86064 8.63435 9.16013C9.15293 9.45961 9.7923 9.45961 10.3109 9.16013C10.8298 8.86065 11.1495 8.3073 11.1495 7.70834V6.53393H33.54V7.70834C33.54 8.3073 33.8592 8.86064 34.3782 9.16013C34.8968 9.45961 35.5362 9.45961 36.0547 9.16013C36.5737 8.86065 36.893 8.3073 36.893 7.70834V6.53393H40.6258V12.0102H4.06393L4.06325 6.53364ZM4.06325 15.3599L40.6252 15.3603V21.1181C35.0345 21.8232 30.6087 26.348 30.065 31.9855C30.0257 32.368 30.0029 32.7576 30.0029 33.1535V33.167V33.1763C30.0033 33.3184 30.0205 33.4571 30.0257 33.5984H4.06323L4.06325 15.3599ZM42.147 24.3634C47.0236 24.3634 50.9374 28.2772 50.9374 33.1538C50.9374 38.0303 47.0236 41.9442 42.147 41.9442C37.9498 41.9442 34.4716 39.0436 33.5825 35.1265H33.5821C33.5765 35.0584 33.5668 34.9907 33.553 34.9238C33.4296 34.3436 33.3612 33.7472 33.3567 33.1539V33.1475V33.1412C33.3567 33.0866 33.3656 33.035 33.3664 32.9808C33.3713 32.7318 33.3776 32.485 33.4023 32.2412C33.4322 31.9485 33.4756 31.6609 33.5331 31.3775C33.5339 31.3742 33.5358 31.3712 33.5365 31.3675C33.5945 31.0844 33.6651 30.8055 33.7493 30.5333C33.75 30.5311 33.7519 30.5292 33.7526 30.527C33.7736 30.4589 33.802 30.3946 33.8248 30.3273C33.894 30.1217 33.9635 29.9142 34.0472 29.7156C34.2682 29.1922 34.5385 28.6953 34.8522 28.2305C34.8537 28.2287 34.8541 28.2261 34.8556 28.2242C34.967 28.0593 35.1132 27.9228 35.2351 27.7662C35.4586 27.4794 35.6718 27.1818 35.9286 26.9253C36.3246 26.5301 36.7583 26.1727 37.2241 25.8589C37.2252 25.8582 37.226 25.8563 37.2275 25.8556C37.4417 25.7113 37.684 25.6111 37.9113 25.4858C39.1709 24.7915 40.5999 24.3638 42.1478 24.3638L42.147 24.3634ZM46.053 29.0385C45.6758 29.0411 45.3101 29.1716 45.0162 29.4079L40.2923 33.131L39.6608 32.1166C39.4406 31.7087 39.0611 31.4103 38.6128 31.2922C38.1645 31.1744 37.6871 31.2477 37.2948 31.4944C36.9022 31.7412 36.6297 32.1394 36.5418 32.5948C36.4539 33.0498 36.5586 33.5213 36.8308 33.8963L38.4501 36.4806V36.4809C38.704 36.8799 39.1149 37.1528 39.5807 37.2328C40.0469 37.3125 40.5251 37.1913 40.8971 36.8997L47.0805 32.0414C47.4532 31.755 47.6884 31.3247 47.7284 30.8562C47.7684 30.3877 47.6099 29.9241 47.2913 29.5782C46.9728 29.2323 46.5234 29.0365 46.053 29.0383L46.053 29.0385Z" fill="#97805A"/>
</svg>
