<svg width="41" height="52" viewBox="0 0 41 52" fill="none" xmlns="http://www.w3.org/2000/svg">
<path d="M40.4393 40.5936L30.1481 9.02323C30.0408 8.59438 29.7193 8.27285 29.3443 8.11208L12.0851 0.447476C11.3881 0.125934 10.5843 0.394011 10.1555 1.09056L0.721947 17.3849C0.507709 17.7603 0.453871 18.1888 0.614642 18.6177L10.8523 50.2416C11.0665 50.8847 11.6561 51.2601 12.2995 51.2601C12.4603 51.2601 12.6211 51.2601 12.7819 51.2067L39.5283 42.5236C40.2248 42.2555 40.7075 41.3978 40.4394 40.5936L40.4393 40.5936ZM13.2105 47.8832L3.6697 18.3496L12.0847 3.77043L27.4679 10.5777L37.1159 40.1113L13.2105 47.8832Z" fill="#97805A"/>
<path d="M16.7855 9.77329C17.2248 11.1245 16.4853 12.5759 15.134 13.0152C13.7828 13.4545 12.3314 12.715 11.8921 11.3638C11.4528 10.0126 12.1923 8.56079 13.5436 8.12184C14.8947 7.68253 16.3465 8.42207 16.7855 9.77329Z" fill="#97805A"/>
<path d="M21.0897 26.6577L19.4817 21.78C20.8217 21.4046 22.2152 22.1016 22.644 23.4415C22.912 24.2454 23.7697 24.6742 24.5201 24.4061C25.324 24.1381 25.7528 23.2803 25.4847 22.5299C24.5201 19.6357 21.4113 18.0276 18.5167 18.9387L17.8736 16.9018C17.6055 16.098 16.7478 15.6691 15.9974 15.9372C15.1935 16.2053 14.7647 17.063 15.0328 17.8134L15.6759 19.8503C14.2824 20.3326 13.1567 21.2976 12.5136 22.5838C11.8167 23.9238 11.7097 25.4246 12.192 26.818C12.6743 28.2115 13.6393 29.3907 14.9793 30.0876C16.2658 30.7307 17.7666 30.8915 19.1601 30.463L20.7682 35.3407C19.4282 35.7161 18.0347 35.0192 17.6059 33.6792C17.3378 32.8754 16.4801 32.4465 15.7297 32.7146C14.9259 32.9827 14.497 33.8404 14.7651 34.5908C15.5155 36.9493 17.7132 38.45 20.0716 38.45C20.6078 38.45 21.1974 38.3427 21.7331 38.1819L22.3762 40.2188C22.5904 40.8619 23.18 41.2373 23.8235 41.2373C23.9842 41.2373 24.145 41.2373 24.3058 41.1838C25.1096 40.9158 25.5385 40.0581 25.2704 39.3076L24.6273 37.2708C27.5215 36.3061 29.0761 33.1435 28.165 30.2492C27.1465 27.3008 24.0377 25.7466 21.0896 26.6578L21.0897 26.6577ZM16.3729 27.3543C15.7832 27.0327 15.301 26.4966 15.0864 25.8535C14.8721 25.2104 14.9256 24.5134 15.2471 23.8703C15.5687 23.2807 16.051 22.8519 16.6944 22.6376L18.3025 27.5153C17.606 27.7296 16.9625 27.6761 16.3729 27.3542L16.3729 27.3543ZM23.609 34.3761L22.0009 29.4984C23.3409 29.1231 24.7344 29.82 25.1632 31.1599C25.6459 32.4999 24.949 33.8935 23.609 34.3761Z" fill="#97805A"/>
</svg>
