<svg width="62" height="71" viewBox="0 0 62 71" fill="none" xmlns="http://www.w3.org/2000/svg">
<g clip-path="url(#clip0_689_4054)">
<path d="M20.319 30.4425L17.1892 33.344L28.1684 43.5222L46.5995 26.4357L43.4697 23.5342L28.1684 37.7192L20.319 30.4425Z" fill="#97805A"/>
<path d="M31 0L0 8.19784V25.6067C0 34.8178 2.83173 43.8446 8.14744 51.6279C13.4631 59.4113 21.0641 65.6287 30.0561 69.5895L31 70.004L31.9439 69.5895C40.9359 65.6287 48.5369 59.4113 53.8526 51.6279C59.1683 43.8446 62 34.8178 62 25.6067V8.19784L31 0ZM57.5785 11.2835V25.6067C57.5785 33.8046 55.0945 41.8182 50.4744 48.8186C45.8542 55.819 39.2468 61.4838 31.3974 65.2142L31 65.3985L30.6026 65.2142C22.7532 61.4838 16.1458 55.819 11.5256 48.8186C6.90545 41.8642 4.42147 33.8506 4.42147 25.6528V11.2835L31 4.28314L57.5785 11.2835Z" fill="#97805A"/>
</g>
<defs>
<clipPath id="clip0_689_4054">
<rect width="62" height="70.05" fill="white"/>
</clipPath>
</defs>
</svg>
