<svg width="97" height="59" viewBox="0 0 97 59" fill="none" xmlns="http://www.w3.org/2000/svg">
<g clip-path="url(#clip0_689_4100)">
<path d="M96.7672 55.8393L95.138 52.5615C96.1854 52.3859 97 51.5079 97 50.3958V21.4811C97 20.252 96.0108 19.3155 94.847 19.3155H87.4571V7.02381C87.4571 3.16071 84.3149 0 80.4745 0H53.3005C51.4967 0 49.8092 0.702381 48.5291 1.93155C47.1908 0.702381 45.5033 0 43.6995 0H16.5255C12.6851 0 9.54289 3.16071 9.54289 7.02381V19.3155H2.15297C0.931014 19.3155 0 20.3105 0 21.4811V50.3958C0 51.5079 0.814637 52.3859 1.86203 52.5615L0.232753 55.8393C-0.116377 56.5417 -0.0581883 57.3026 0.34913 57.9464C0.756449 58.5903 1.45471 59 2.21116 59H8.61188C9.42651 59 10.183 58.5317 10.5321 57.7708L13.1506 52.5615H83.9076L86.5261 57.7708C86.8752 58.5317 87.6317 59 88.5045 59H94.9052C95.6617 59 96.3599 58.5903 96.7672 57.9464C97.0582 57.3026 97.1164 56.5417 96.7672 55.8393ZM91.2975 54.6101H89.7846L88.7954 52.5615H90.3083L91.2975 54.6101ZM92.6359 23.6468V48.1716H87.3989V23.6468H92.6359ZM53.3005 4.38988H80.4745C81.9292 4.38988 83.093 5.56052 83.093 7.02381V29.4415C82.2783 29.0903 81.4055 28.9147 80.4745 28.9147H53.3005C52.4277 28.9147 51.4967 29.0903 50.6821 29.4415V7.02381C50.6821 5.56052 51.8458 4.38988 53.3005 4.38988ZM50.6821 35.9385C50.6821 34.4752 51.8458 33.3046 53.3005 33.3046H80.4745C81.9292 33.3046 83.093 34.4752 83.093 35.9385V38.5724H50.6821V35.9385ZM83.0348 42.9623V48.2302H13.9652V42.9623H83.0348ZM46.3179 38.5724H13.9652V35.9385C13.9652 34.4752 15.129 33.3046 16.5837 33.3046H43.7576C45.2124 33.3046 46.3761 34.4752 46.3761 35.9385V38.5724H46.3179ZM13.9652 7.02381C13.9652 5.56052 15.129 4.38988 16.5837 4.38988H43.7576C45.2124 4.38988 46.3761 5.56052 46.3761 7.02381V29.4415C45.5615 29.0903 44.6887 28.9147 43.7576 28.9147H16.5255C15.6527 28.9147 14.7217 29.0903 13.907 29.4415V7.02381H13.9652ZM5.70246 54.6101L6.69166 52.5615H8.20456L7.21536 54.6101H5.70246ZM9.60108 23.6468V48.1716H4.36413V23.6468H9.60108Z" fill="#97805A"/>
</g>
<defs>
<clipPath id="clip0_689_4100">
<rect width="97" height="59" fill="white"/>
</clipPath>
</defs>
</svg>
