<svg width="66" height="73" viewBox="0 0 66 73" fill="none" xmlns="http://www.w3.org/2000/svg">
<path fill-rule="evenodd" clip-rule="evenodd" d="M33.3473 16.0498C25.1593 16.0498 18.5593 22.2121 18.5593 29.754C18.5593 37.2959 25.2089 43.4582 33.3473 43.4582C41.4856 43.4582 48.1353 37.2959 48.1353 29.754C48.1849 22.2121 41.5353 16.0498 33.3473 16.0498ZM23.5217 29.8C23.5217 24.7414 27.9383 20.6485 33.3969 20.6485C38.8556 20.6485 43.2721 24.7414 43.2721 29.8C43.2721 34.8586 38.8556 38.9515 33.3969 38.9515C27.9383 38.9515 23.5217 34.8126 23.5217 29.8Z" fill="#97805A"/>
<path fill-rule="evenodd" clip-rule="evenodd" d="M9.67669 52.1956C-3.22556 40.2389 -3.22556 20.8782 9.67669 8.96753C22.5789 -2.98918 43.4707 -2.98918 56.3233 8.96753C69.2256 20.9242 69.2256 40.2849 56.3233 52.1956L34.7368 72.2001C33.794 73.0738 32.206 73.0738 31.2632 72.2001L9.67669 52.1956ZM13.1504 12.1866C2.18346 22.3498 2.18346 38.8133 13.1504 48.9765L33 67.3714L52.8496 48.9765C63.8165 38.8133 63.8165 22.3498 52.8496 12.1866C41.8827 2.02344 24.1173 2.02344 13.1504 12.1866Z" fill="#97805A"/>
</svg>
